<?xml version="1.0" encoding="utf-8"?>
<!-- Generator: Adobe Illustrator 23.0.4, SVG Export Plug-In . SVG Version: 6.00 Build 0)  -->
<svg version="1.0" id="Layer_1" xmlns="http://www.w3.org/2000/svg" xmlns:xlink="http://www.w3.org/1999/xlink" x="0px" y="0px"
	 viewBox="0 0 270.1 300" style="enable-background:new 0 0 270.1 300;" xml:space="preserve">
<style type="text/css">
	.st0{fill-rule:evenodd;clip-rule:evenodd;fill:#0067C5;}
</style>
<g>
	<path class="st0" d="M269.1,285.4c-12,15.4-35.1,13.1-42.2,12.6c-28.9-1.8-58.7-14.2-92.3-15.8C79,279.7,2,298.7,2,298.7
		s44.4-16.6,90-22.5l-26.6-47.8l63.4,21.9c11,14.6,20.6,23.4,20.6,23.4s-7.7-8.4-17-22.1l24,8.3c7.6,11,13.9,17.7,13.9,17.7
		s-5.2-6.4-11.7-16.9l69.4,24C228,284.6,244.1,290.5,269.1,285.4L269.1,285.4z M198.2,3l-31,131.4c-0.6-0.6-3.4-3-7.7-2.8l1.3-46.6
		c8.1,0.2,14.3,2.8,17,4.2c-2.7-1.7-8.9-5-17-6.1l1.5-54.6C162.4,28.4,198.2,3,198.2,3z M159.5,134.4c4.3-1.8,7.1-0.4,7.7-0.1
		l-8.8,37.1C158.4,171.5,159.5,134.4,159.5,134.4z M122.1,240.9l-50.5-20L60,178.6l44.5,29.2C109.3,220.2,115.7,231.4,122.1,240.9z
		 M151.7,252.6l-24.9-9.9c-5.4-8.8-10.9-19.2-15.4-30.4l29,19.1C143.8,239.2,147.8,246.3,151.7,252.6z M204.7,273.6l-50.2-19.8
		c-3.2-5.7-6.6-12.3-9.6-19.4L204.7,273.6z M100.5,196.1l-32.7-23.4l-1-43.9l29.1,31.5C95.3,172.8,97.2,184.9,100.5,196.1z
		 M136.7,222l-29.3-21c-3.5-11-5.8-22.8-6-34.7l29.6,32C131.9,206.6,134,214.5,136.7,222z M184.2,256.1l-42.7-30.5
		c-2.5-7-4.5-14.3-5.7-21.9L184.2,256.1L184.2,256.1z M96.9,149.9l-21.1-24.8l9.6-42.9l20.9,38.2C101.4,130.4,98.4,140.3,96.9,149.9
		L96.9,149.9z M130.3,189.1l-28.5-33.5c0.9-9.8,3.3-19.6,7.8-29.3l23,42C130.8,175.3,130.1,182.3,130.3,189.1L130.3,189.1z
		 M168.6,234.1l-33.8-39.7c-0.5-6.7-0.2-13.5,1-20.2C135.8,174.2,168.6,234.1,168.6,234.1z M111,112.2l-15-30.1l19.7-39.3l12.9,49
		C122.7,96.4,116.7,103,111,112.2z M135,160.4L113.9,118l0.2-0.4c5.2-8.8,10.6-15.3,16-20.2l12.5,47.7c-1.2,1.8-2.4,3.9-3.6,6.3
		C137.4,154.3,136.1,157.4,135,160.4z M159.7,210.3l-22-44.2c1.1-3.4,2.4-6.9,4-10.2c0.8-1.7,1.6-3.2,2.4-4.6L159.7,210.3
		L159.7,210.3z M134.3,88.1l-8.9-40.3l28.6-33.3l0.9,68.1C148.7,82.5,141.6,83.9,134.3,88.1z M145.9,140.4l-10.4-47.4
		c6.9-4.9,13.6-7.1,19.5-7.9l0.6,47.2C152.7,133.6,149.4,136,145.9,140.4z M156.3,187.6l-9.1-41.2c3.1-4.7,5.9-7.7,8.4-9.7
		L156.3,187.6"/>
</g>
</svg>
