<?xml version="1.0" encoding="UTF-8" standalone="no"?>
<svg xmlns:rdf="http://www.w3.org/1999/02/22-rdf-syntax-ns#" xmlns="http://www.w3.org/2000/svg" xml:space="preserve" height="121.68" viewBox="0 0 375.15317 121.68201" width="375.15" version="1.1" xmlns:cc="http://creativecommons.org/ns#" xmlns:dc="http://purl.org/dc/elements/1.1/"><defs><clipPath id="b" clipPathUnits="userSpaceOnUse"><path d="m0 198.66h612.29v-198.6h-612.29v198.6z"/></clipPath><clipPath id="a" clipPathUnits="userSpaceOnUse"><path d="m0 198.66h612.29v-198.6h-612.29v198.6z"/></clipPath></defs><g transform="matrix(1.25 0 0 -1.25 -195.03 185.02)"><g style="" transform="matrix(.49016 0 0 .49016 156.02 50.642)"><g fill="#0067c5"><g fill="#0067c5" clip-path="url(#b)"><path d="m179.38 8.929c-8.04-10.329-23.6-8.795-28.35-8.493-19.43 1.235-39.43 9.522-61.973 10.581-37.322 1.754-89.057-11.017-89.057-11.017s29.83 11.154 60.437 15.133l-17.862 32.092 42.598-14.702c7.419-9.822 13.838-15.702 13.838-15.702s-5.197 5.639-11.42 14.867l16.134-5.568c5.096-7.398 9.314-11.877 9.314-11.877s-3.516 4.327-7.857 11.374l46.64-16.097s10.772-3.997 27.553-0.591zm-47.587 189.73-20.83-88.225c-0.41 0.388-2.288 1.996-5.148 1.867l0.866 31.316c5.445-0.127 9.615-1.904 11.446-2.838-1.8 1.16-5.967 3.325-11.411 4.122l1.014 36.694 24.063 17.064zm-26.031-88.286c2.873 1.208 4.769 0.282 5.195 0.034l-5.882-24.913 0.687 24.879zm-25.105-71.511-33.905 13.411-7.806 28.447 29.881-19.616c3.265-8.316 7.534-15.847 11.83-22.242zm19.865-7.859-16.744 6.624c-3.628 5.935-7.318 12.871-10.332 20.446l19.497-12.799c2.31-5.262 4.97-10.081 7.579-14.271zm35.623-14.091-33.69 13.326c-2.173 3.849-4.409 8.241-6.418 13.002l40.108-26.328zm-69.998 52-21.934 15.692-0.691 29.491 19.531-21.153c-0.364-8.367 0.878-16.452 3.094-24.03zm24.314-17.39-19.702 14.096c-2.333 7.42-3.87 15.295-4.012 23.33l19.858-21.506c0.677-5.52 2.061-10.872 3.856-15.92zm31.944-22.856-28.664 20.509c-1.655 4.685-3.012 9.629-3.835 14.692l32.502-35.201zm-58.662 71.293-14.163 16.63 6.464 28.782 14.065-25.673c-3.341-6.65-5.37-13.26-6.363-19.744zm22.415-26.318-19.153 22.491c0.599 6.573 2.233 13.194 5.222 19.706l15.458-28.221c-1.164-4.688-1.619-9.373-1.527-13.981zm25.757-30.244-22.733 26.694c-0.308 4.501-0.133 9.05 0.683 13.552l22.05-40.246zm-38.686 81.87-10.051 20.232 13.235 26.363 8.644-32.91c-3.983-3.064-7.993-7.474-11.828-13.685zm16.079-32.36l-14.165 28.511 0.153 0.259c3.517 5.903 7.145 10.307 10.738 13.558l8.408-32.009c-0.792-1.237-1.599-2.63-2.419-4.199-1.062-2.031-1.963-4.073-2.715-6.12zm16.647-33.502-14.765 29.712c0.709 2.312 1.608 4.602 2.719 6.855 0.549 1.112 1.09 2.144 1.623 3.101l10.42-39.668zm-17.057 82.11-5.954 27.04 19.22 22.378 0.571-45.722c-4.224 0.021-8.962-0.923-13.837-3.696zm7.747-35.188-7.003 31.807c4.622 3.269 9.102 4.78 13.115 5.289l0.397-31.715c-1.926-0.773-4.126-2.383-6.509-5.381zm6.972-31.661-6.099 27.696c2.062 3.137 3.974 5.178 5.672 6.483l0.427-34.179" fill-rule="evenodd" fill="#0067c5"/></g></g><path d="m181.54 73.465-0.569 9.162h-0.947c-0.126-0.189-0.443-0.379-1.138-0.379-1.958 0-5.37 2.527-13.332 2.527-13.206 0-22.683-8.846-22.683-21.104 0-11.689 9.224-20.157 22.051-20.157 7.456 0 10.237 2.276 14.28 1.707 1.517 2.464 3.222 6.382 4.044 9.225h-1.2c-4.297-7.645-10.426-9.351-15.418-9.351-9.604 0-17.818 8.403-17.818 19.84 0 10.615 6.571 18.261 17.124 18.261 6.886 0 12.321-3.855 14.406-9.731h1.2zm427.78-27.739c-4.36 0-5.371 1.265-5.371 4.993v26.79c0 4.233 1.391 5.118 5.371 5.118v1.2h-15.354v-1.2c3.538-0.189 4.738-1.137 4.738-4.549v-26.918c0-4.233-0.821-5.244-4.738-5.434v-1.2h15.354v1.2zm-33.786 35.827h10.994c2.527 0 3.665-1.453 4.612-7.013h1.138l-1.011 10.235h-1.201c-0.126-0.758-1.074-0.948-1.959-0.948h-30.391c-0.443 0-0.885 0.064-1.264 0.19s-0.633 0.379-0.695 0.758h-1.201l-1.011-10.235h1.137c0.948 5.56 2.085 7.013 4.613 7.013h10.994v-31.214c0-3.412-1.136-4.613-4.991-4.613h-2.338v-1.2h19.904v1.2h-2.339c-3.854 0-4.991 1.201-4.991 4.613v31.214zm-47.44-27.423l1.326-9.604h1.074c0.253 0.379 0.696 0.695 1.265 0.695 0.884 0 5.307-1.707 8.782-1.707 7.393 0 12.89 4.614 12.89 10.806 0 11.626-20.283 14.027-20.283 22.999 0 3.539 2.907 5.94 7.077 5.94 4.359 0 8.404-2.907 10.173-7.456h1.075l-1.075 8.024h-1.011c-0.379-0.505-0.632-0.631-1.137-0.631-2.212 0-3.286 1.579-8.593 1.579-6.446 0-11.248-3.917-11.248-9.161 0-11.058 20.283-13.839 20.283-22.937 0-4.992-4.487-7.456-8.72-7.456-4.928 0-9.351 3.286-10.678 8.909h-1.2zm-1.391-8.404c-4.359 0-5.37 1.265-5.37 4.993v26.79c0 4.233 1.391 5.118 5.37 5.118v1.2h-15.353v-1.2c3.538-0.189 4.739-1.137 4.739-4.549v-26.918c0-4.233-0.822-5.244-4.739-5.434v-1.2h15.353v1.2zm-68.718 17.566v-12.827c0-3.285-0.885-4.739-4.991-4.739h-1.96v-1.2h17.882v1.2h-0.631c-3.792 0-5.056 1.012-5.056 5.498v26.222c0 3.917 1.011 5.054 4.802 5.181v1.2h-16.238v-1.2h1.201c3.916 0 4.991-1.264 4.991-4.613v-12.448h-24.769v10.995c0 4.866 0.758 6.066 5.245 6.066v1.2h-15.039v-1.2c3.476-0.253 4.55-1.2 4.55-4.486v-27.802c0-3.601-1.264-4.613-4.992-4.613h-0.379v-1.2h15.86v1.2h-0.19c-4.234 0-5.055 1.454-5.055 5.56v12.006h24.769zm-37.141 10.173-0.569 9.162h-0.948c-0.126-0.189-0.442-0.379-1.137-0.379-1.958 0-5.37 2.527-13.332 2.527-13.206 0-22.683-8.846-22.683-21.104 0-11.689 9.224-20.157 22.051-20.157 7.456 0 10.237 2.276 14.28 1.707 1.517 2.464 3.222 6.382 4.044 9.225h-1.201c-4.296-7.645-10.425-9.351-15.417-9.351-9.604 0-17.818 8.403-17.818 19.84 0 10.615 6.571 18.261 17.124 18.261 6.886 0 12.32-3.855 14.406-9.731h1.2zm-89.583 10.362v-1.2c5.245-0.253 6.193-1.327 6.193-7.393v-14.721c0-10.743-7.267-13.712-14.407-13.712-9.414 0-14.407 5.118-14.407 13.648v17.565c0 3.665 1.517 4.613 4.993 4.613h0.568v1.2h-16.238v-1.2c4.296-0.063 5.434-0.696 5.434-4.739v-18.451c0-9.034 6.191-15.923 18.261-15.923 13.711 0 18.702 8.405 18.702 16.24v17.06c0 4.044 1.516 5.75 5.75 5.813v1.2h-14.849zm14.171-29.697 1.327-9.604h1.074c0.252 0.379 0.695 0.695 1.264 0.695 0.884 0 5.307-1.707 8.782-1.707 7.393 0 12.891 4.614 12.891 10.806 0 11.626-20.284 14.027-20.284 22.999 0 3.539 2.907 5.94 7.077 5.94 4.36 0 8.404-2.907 10.174-7.456h1.073l-1.073 8.024h-1.012c-0.379-0.505-0.631-0.631-1.137-0.631-2.211 0-3.285 1.579-8.593 1.579-6.445 0-11.248-3.917-11.248-9.161 0-11.058 20.283-13.839 20.283-22.937 0-4.992-4.486-7.456-8.72-7.456-4.927 0-9.351 3.286-10.677 8.909h-1.201zm-116.42 11.121c0 11.373-10.237 19.524-22.179 19.524-13.459 0-23.126-8.908-23.126-21.483 0-11.816 10.426-19.778 22.81-19.778 12.258 0 22.495 8.974 22.495 21.737zm-5.94-2.085c0-8.973-4.928-18.071-15.228-18.071-10.173 0-18.197 8.34-18.197 20.156 0 7.582 4.422 17.945 15.544 17.945 10.425 0 17.881-8.277 17.881-20.03zm53.191-1.517c1.896-0.379 3.476-0.505 5.371-0.505 9.351 0 15.29 4.676 15.29 12.068 0 4.866-3.032 11.184-16.238 11.184-1.706 0-4.738-0.063-7.835-0.189-3.096-0.126-5.457-0.316-7.227-0.38v-1.2h2.425c2.211 0 2.97-1.01 2.97-3.349v-29.887c0-2.969-0.393-3.656-3.679-3.656v-1.209h15.661v1.2h-1.683c-3.981 0-5.055 1.327-5.055 4.866v11.057zm0 21.294c1.517 0.253 2.907 0.253 4.36 0.253 8.403 0 10.362-4.865 10.362-9.794 0-6.382-4.422-11.057-11.31-11.057-1.201 0-2.591 0.315-3.412 0.504v20.094zm322.93 24.899-6.51 10.047c-1.22 1.872-1.016 2.644 2.157 2.644v0.773h-10.821v-0.773c2.644-0.081 3.579-0.65 5.573-3.783l7.241-11.309v-5.736c0-1.993-0.733-2.929-3.255-2.929h-0.772v-0.773h11.187v0.773h-0.529c-2.482 0-3.255 0.854-3.255 3.011v6.101l6.753 11.432c1.139 1.912 2.32 3.01 5.085 3.213v0.773h-9.193v-0.773c2.603 0 3.376-0.691 2.074-2.928l-5.735-9.763zm-164.13-12.123v22.699c0 1.587 0.651 2.115 3.703 2.115v0.773h-9.52v-0.773c3.254-0.081 3.987-0.528 3.987-3.009v-16.192l-19.161 19.974h-6.387v-0.773c1.424-0.04 2.482-0.366 3.417-1.016v-20.015c0-1.872-0.814-2.726-3.336-2.726l-0.162-0.773h9.437v0.773c-3.457 0-4.108 0.611-4.108 3.54v17.451l21.073-22.048h1.057zm-38.089 25.587v-0.773c3.377-0.162 3.987-0.854 3.987-4.759v-9.478c0-6.916-4.678-8.828-9.276-8.828-6.061 0-9.274 3.295-9.274 8.787v11.309c0 2.36 0.976 2.969 3.213 2.969h0.366v0.773h-10.454v-0.773c2.766-0.04 3.499-0.447 3.499-3.05v-11.879c0-5.817 3.986-10.252 11.756-10.252 8.828 0 12.041 5.411 12.041 10.455v10.984c0 2.603 0.976 3.702 3.702 3.742v0.773h-9.56zm52.917-24.53c-2.807 0-3.457 0.814-3.457 3.214v17.249c0 2.726 0.895 3.294 3.457 3.294v0.773h-9.885v-0.773c2.279-0.121 3.051-0.731 3.051-2.928v-17.33c0-2.726-0.529-3.377-3.051-3.499v-0.773h9.885v0.773zm-217.48 12.245-3.581 9.478-3.457-9.478h7.038zm-26.947-1.505-6.468-7.77c-1.586-1.912-1.465-2.97 1.22-2.97h0.814v-0.773h-9.682v0.773c2.847 0.244 3.946 0.936 6.794 4.353l6.305 7.608-6.305 7.932c-2.522 3.173-3.58 3.783-6.794 3.864v0.773h12.123v-0.773c-3.58 0.041-3.743-0.854-2.482-2.44l5.533-6.834 4.394 5.247c2.44 2.888 2.359 4.027 0.162 4.027h-1.18v0.773h9.764v-0.773c-2.685 0-4.557-1.26-6.916-4.148l-5.207-6.388s6.363-9.18 9.613-11.889c0.069-0.036 0.658-0.712 1.341-0.744 0.938-0.047 1.244 1.501 1.957 3.439l7.404 20.219-0.366 0.895h3.539l8.502-22.578c0.814-2.156 1.668-2.563 3.702-2.563v-0.773h-11.187v0.773h1.058c2.318 0 3.173 0.244 3.173 1.383 0 0.651-0.285 1.262-0.447 1.668l-2.726 7.404h-8.421l-2.359-6.387c-0.285-0.772-0.814-1.993-0.814-2.562 0-1.099 1.058-1.506 3.295-1.506h0.651v-0.773h-15.312v0.773c2.848 0 3.499 0.692 1.424 3.214l-6.102 7.526zm-18.741 5.37h-0.773c-0.203-2.36-0.895-3.051-2.36-3.051h-7.281v10.007h8.584c1.464 0 2.481-0.732 3.009-4.19h0.733l-0.325 5.654h-19.527v-0.773h0.895c2.725 0 3.254-0.976 3.254-3.254v-17.167c0-2.441-0.57-3.336-3.824-3.336h-1.138v-0.773h21.6l0.652 6.062h-0.733c-1.017-3.499-1.871-4.597-4.719-4.597h-6.265c-1.505 0-2.196 0.366-2.196 2.237v8.665h6.875c1.668 0 2.441-0.325 2.766-3.213h0.773v7.729zm57.218-10.7 0.854-6.183h0.692c0.163 0.244 0.448 0.448 0.814 0.448 0.569 0 3.417-1.099 5.654-1.099 4.76 0 8.299 2.971 8.299 6.957 0 7.485-13.059 9.031-13.059 14.807 0 2.278 1.872 3.825 4.556 3.825 2.808 0 5.412-1.872 6.55-4.801h0.692l-0.692 5.166h-0.651c-0.244-0.325-0.406-0.406-0.732-0.406-1.423 0-2.115 1.017-5.532 1.017-4.15 0-7.241-2.523-7.241-5.899 0-7.119 13.058-8.909 13.058-14.767 0-3.214-2.889-4.8-5.614-4.8-3.173 0-6.021 2.115-6.875 5.735h-0.773zm98.672-6.183 10.13 21.718 1.261-18.255c0.162-2.16-1.709-2.69-3.62-2.69v-0.773h10.454v0.773c-2.969 0-3.295 0-3.539 3.749l-1.302 18.46c-0.081 1.385 0.692 1.426 2.685 1.589v0.732h-5.98l-9.764-20.536-9.803 20.536h-6.143v-0.732c2.523-0.163 2.604-0.896 2.441-3.585l-0.976-15.852c-0.204-3.708-0.57-4.361-3.54-4.361v-0.773h8.461v0.773c-1.83 0.082-3.376 0.53-3.253 2.609l1.098 18.336 10.455-21.718h0.935zm-51.723 11.228 2.725-7.404c0.163-0.406 0.448-1.017 0.448-1.668 0-1.139-0.855-1.383-3.173-1.383h-1.058v-0.773h11.187v0.773c-2.035 0-2.889 0.407-3.703 2.563l-8.502 22.578h-3.539l0.367-0.895-7.404-20.219c-1.302-3.539-1.75-3.986-4.394-4.027v-0.773h9.398v0.773h-0.652c-2.237 0-3.295 0.407-3.295 1.506 0 0.569 0.529 1.79 0.814 2.562l2.36 6.387h8.421zm-0.692 1.79h-7.038l3.458 9.478 3.58-9.478zm-133.4 10.821h7.079c1.627 0 2.359-0.935 2.969-4.515h0.733l-0.651 6.59h-0.773c-0.082-0.489-0.692-0.611-1.261-0.611h-19.567c-0.285 0-0.57 0.041-0.814 0.122-0.244 0.082-0.407 0.245-0.447 0.489h-0.773l-0.652-6.59h0.733c0.61 3.58 1.342 4.515 2.969 4.515h7.079v-20.096c0-2.197-0.732-2.97-3.214-2.97h-1.505v-0.773h12.814v0.773h-1.505c-2.482 0-3.214 0.773-3.214 2.97v20.096zm161.94-8.332v-0.948h0.79c0.79 0 1.212-0.106 1.212-0.632s-1.58-3.318-4.319-6.847c-1.949 2.897-3.318 4.372-5.373 6.267 1.58 0.896 3.688 2.107 3.688 4.583 0 2.317-2.371 3.74-5.057 3.74-2.897 0-5.266-1.528-5.266-4.583 0-2.001 1.157-3.371 2.527-4.845-2.475-0.896-6.109-2.213-6.109-6.953s3.897-5.899 5.898-5.899c2.897 0 5.953 2.581 7.638 4.003 0.842-1.422 2.37-4.003 5.004-4.003 1.895 0 3.897 1.317 4.845 1.949l-0.527 0.842c-0.79-0.473-1.475-0.895-2.317-0.895-1.422 0-3.055 2.634-4.425 4.898 0.896 1.159 3.055 3.898 4.688 7.058 0.579 1.106 1.001 1.37 3.476 1.317v0.948h-6.373zm-8.585-1.37c-1.896 1.634-2.686 2.424-2.686 4.214 0 1.37 0.79 2.581 2.001 2.581 0.844 0 2.213-0.685 2.213-3.213 0-1.948-0.791-2.792-1.528-3.582zm-2.475-2.685c4.424-4.53 4.898-5.004 6.11-7.216-1.16-1.053-2.898-2.634-5.058-2.634-2.475 0-4.265 1.844-4.265 4.477 0 3.003 2.212 4.635 3.213 5.373zm158.35-12.103 8.38 21.683c0.976 2.522 2.075 3.498 4.19 3.498v0.773h-9.438v-0.773c2.767 0 3.783-0.487 3.783-1.708 0-0.569-0.243-1.383-0.691-2.522l-6.428-16.801-7.321 18.224c-0.774 1.872 0.121 2.726 3.864 2.807v0.773h-11.188v-0.773c2.482 0 2.97-0.609 3.988-3.173l8.827-22.008h2.034zm31.844 17.534h-0.773c-0.204-2.36-0.895-3.051-2.36-3.051h-7.282v10.007h8.584c1.464 0 2.481-0.732 3.01-4.19h0.733l-0.325 5.654h-19.528v-0.773h0.895c2.726 0 3.255-0.976 3.255-3.254v-17.167c0-2.441-0.57-3.336-3.824-3.336h-1.139v-0.773h21.601l0.651 6.062h-0.732c-1.017-3.499-1.872-4.597-4.719-4.597h-6.265c-1.505 0-2.197 0.366-2.197 2.237v8.665h6.876c1.667 0 2.44-0.325 2.766-3.213h0.773v7.729zm58.927-16.11c-2.807 0-3.458 0.814-3.458 3.214v17.249c0 2.726 0.896 3.294 3.458 3.294v0.773h-9.885v-0.773c2.278-0.121 3.051-0.731 3.051-2.928v-17.33c0-2.726-0.529-3.377-3.051-3.499v-0.773h9.885v0.773zm15.241 23.066h7.078c1.627 0 2.36-0.935 2.969-4.515h0.733l-0.651 6.59h-0.773c-0.081-0.489-0.691-0.611-1.261-0.611h-19.567c-0.285 0-0.57 0.041-0.814 0.122-0.244 0.082-0.407 0.245-0.447 0.489h-0.773l-0.651-6.59h0.732c0.61 3.58 1.342 4.515 2.97 4.515h7.078v-20.096c0-2.197-0.732-2.97-3.214-2.97h-1.505v-0.773h12.814v0.773h-1.504c-2.482 0-3.214 0.773-3.214 2.97v20.096zm-320.34-56.875c5.064 1.558 8.204 5.488 8.204 10.156 0 6.432-5.247 11.225-16.941 11.225-4.109 0-5.372-0.062-7.964-0.189-2.591-0.126-6.448-0.379-7.965-0.379v-1.198h1.391c3.666 0 4.74-1.134 4.74-5.045v-26.55c0-4.225-1.327-5.234-5.057-5.234h-1.074v-1.199h17.889v1.199h-1.454c-3.539 0-5.057 0.945-5.057 4.729v10.658c1.011-0.063 1.833-0.126 3.224-0.126 1.695 0 3.727 0.06 5.381 0.276 0.552-0.824 1.192-1.737 1.801-2.747l3.041-5.048c1.084-1.799 2.033-3.333 3.045-4.657 0 0 3.248-4.32 12.598-4.32l-0.008 1.213c-5.007-0.154-8.16 4.803-8.16 4.803s-4.668 7.809-7.634 12.433zm-13.288 20.057c1.138 0.126 1.959 0.126 3.16 0.126 9.735 0 12.39-4.541 12.39-10.405 0-7.569-4.615-10.532-11.631-10.532-1.453 0-2.401-0.063-3.919 0.125v20.686zm257.59-20.057c5.065 1.558 8.204 5.488 8.204 10.156 0 6.432-5.247 11.225-16.941 11.225-4.108 0-5.372-0.062-7.963-0.189-2.592-0.126-6.448-0.379-7.965-0.379v-1.198h1.391c3.666 0 4.74-1.134 4.74-5.045v-26.55c0-4.225-1.327-5.234-5.057-5.234h-1.074v-1.199h17.888v1.199h-1.453c-3.54 0-5.057 0.945-5.057 4.729v10.658c1.011-0.063 1.833-0.126 3.224-0.126 1.695 0 3.727 0.06 5.381 0.276 0.551-0.824 1.192-1.737 1.801-2.747l3.04-5.048c1.084-1.799 2.035-3.333 3.046-4.657 0 0 3.247-4.32 12.597-4.32l-0.007 1.213c-5.008-0.154-8.16 4.803-8.16 4.803s-4.668 7.809-7.635 12.433zm-13.287 20.057c1.137 0.126 1.959 0.126 3.16 0.126 9.735 0 12.39-4.541 12.39-10.405 0-7.569-4.615-10.532-11.631-10.532-1.454 0-2.402-0.063-3.919 0.125v20.686zm47.02 19.525 0.854-6.183h0.692c0.163 0.244 0.447 0.448 0.814 0.448 0.569 0 3.417-1.099 5.654-1.099 4.76 0 8.299 2.97 8.299 6.956 0 7.486-13.059 9.032-13.059 14.808 0 2.278 1.872 3.825 4.556 3.825 2.807 0 5.411-1.872 6.55-4.801h0.692l-0.692 5.167h-0.651c-0.244-0.326-0.407-0.407-0.732-0.407-1.424 0-2.115 1.016-5.533 1.016-4.149 0-7.241-2.522-7.241-5.898 0-7.119 13.058-8.909 13.058-14.767 0-3.213-2.888-4.8-5.613-4.8-3.173 0-6.021 2.115-6.875 5.735h-0.773zm-11.077 5.336c3.27 1.006 5.296 3.544 5.296 6.557 0 4.153-3.387 7.248-10.937 7.248-2.653 0-3.469-0.041-5.142-0.122s-4.163-0.245-5.142-0.245v-0.773h0.898c2.366 0 3.06-0.733 3.06-3.257v-17.142c0-2.729-0.857-3.38-3.265-3.38h-0.693v-0.774h11.55v0.774h-0.939c-2.286 0-3.265 0.61-3.265 3.054v6.881c0.653-0.041 1.183-0.081 2.081-0.081 1.095 0 2.407 0.038 3.474 0.177 0.357-0.531 0.771-1.121 1.163-1.773l1.964-3.259c0.699-1.162 1.313-2.152 1.966-3.007 0 0 2.097-2.789 8.133-2.789l-0.005 0.783c-3.233-0.1-5.268 3.101-5.268 3.101s-3.014 5.042-4.929 8.027zm-8.579 12.95c0.734 0.082 1.265 0.082 2.04 0.082 6.285 0 7.999-2.932 7.999-6.719 0-4.886-2.979-6.8-7.509-6.8-0.938 0-1.551-0.04-2.53 0.082v13.355" fill-rule="evenodd" fill="#069455"/><g stroke="#007f3e" fill="#007f3e"><g clip-path="url(#a)" stroke="#007f3e" fill="#007f3e"><path d="m181.54 73.465-0.569 9.162h-0.947c-0.126-0.189-0.443-0.379-1.138-0.379-1.958 0-5.37 2.527-13.332 2.527-13.206 0-22.683-8.846-22.683-21.104 0-11.689 9.224-20.157 22.051-20.157 7.456 0 10.237 2.276 14.28 1.707 1.517 2.464 3.222 6.382 4.044 9.225h-1.2c-4.297-7.645-10.426-9.351-15.418-9.351-9.604 0-17.818 8.403-17.818 19.84 0 10.615 6.571 18.261 17.124 18.261 6.886 0 12.321-3.855 14.406-9.731h1.2zm427.78-27.739c-4.36 0-5.371 1.265-5.371 4.993v26.79c0 4.233 1.391 5.118 5.371 5.118v1.2h-15.354v-1.2c3.538-0.189 4.738-1.137 4.738-4.549v-26.918c0-4.233-0.821-5.244-4.738-5.434v-1.2h15.354v1.2zm-33.786 35.827h10.994c2.527 0 3.665-1.453 4.612-7.013h1.138l-1.011 10.235h-1.201c-0.126-0.758-1.074-0.948-1.959-0.948h-30.391c-0.443 0-0.885 0.064-1.264 0.19s-0.633 0.379-0.695 0.758h-1.201l-1.011-10.235h1.137c0.948 5.56 2.085 7.013 4.613 7.013h10.994v-31.214c0-3.412-1.136-4.613-4.991-4.613h-2.338v-1.2h19.904v1.2h-2.339c-3.854 0-4.991 1.201-4.991 4.613v31.214zm-47.44-27.423l1.326-9.604h1.074c0.253 0.379 0.696 0.695 1.265 0.695 0.884 0 5.307-1.707 8.782-1.707 7.393 0 12.89 4.614 12.89 10.806 0 11.626-20.283 14.027-20.283 22.999 0 3.539 2.907 5.94 7.077 5.94 4.359 0 8.404-2.907 10.173-7.456h1.075l-1.075 8.024h-1.011c-0.379-0.505-0.632-0.631-1.137-0.631-2.212 0-3.286 1.579-8.593 1.579-6.446 0-11.248-3.917-11.248-9.161 0-11.058 20.283-13.839 20.283-22.937 0-4.992-4.487-7.456-8.72-7.456-4.928 0-9.351 3.286-10.678 8.909h-1.2zm-1.391-8.404c-4.359 0-5.37 1.265-5.37 4.993v26.79c0 4.233 1.391 5.118 5.37 5.118v1.2h-15.353v-1.2c3.538-0.189 4.739-1.137 4.739-4.549v-26.918c0-4.233-0.822-5.244-4.739-5.434v-1.2h15.353v1.2zm-68.718 17.566v-12.827c0-3.285-0.885-4.739-4.991-4.739h-1.96v-1.2h17.882v1.2h-0.631c-3.792 0-5.056 1.012-5.056 5.498v26.222c0 3.917 1.011 5.054 4.802 5.181v1.2h-16.238v-1.2h1.201c3.916 0 4.991-1.264 4.991-4.613v-12.448h-24.769v10.995c0 4.866 0.758 6.066 5.245 6.066v1.2h-15.039v-1.2c3.476-0.253 4.55-1.2 4.55-4.486v-27.802c0-3.601-1.264-4.613-4.992-4.613h-0.379v-1.2h15.86v1.2h-0.19c-4.234 0-5.055 1.454-5.055 5.56v12.006h24.769zm-37.141 10.173-0.569 9.162h-0.948c-0.126-0.189-0.442-0.379-1.137-0.379-1.958 0-5.37 2.527-13.332 2.527-13.206 0-22.683-8.846-22.683-21.104 0-11.689 9.224-20.157 22.051-20.157 7.456 0 10.237 2.276 14.28 1.707 1.517 2.464 3.222 6.382 4.044 9.225h-1.201c-4.296-7.645-10.425-9.351-15.417-9.351-9.604 0-17.818 8.403-17.818 19.84 0 10.615 6.571 18.261 17.124 18.261 6.886 0 12.32-3.855 14.406-9.731h1.2zm-89.583 10.362v-1.2c5.245-0.253 6.193-1.327 6.193-7.393v-14.721c0-10.743-7.267-13.712-14.407-13.712-9.414 0-14.407 5.118-14.407 13.648v17.565c0 3.665 1.517 4.613 4.993 4.613h0.568v1.2h-16.238v-1.2c4.296-0.063 5.434-0.696 5.434-4.739v-18.451c0-9.034 6.191-15.923 18.261-15.923 13.711 0 18.702 8.405 18.702 16.24v17.06c0 4.044 1.516 5.75 5.75 5.813v1.2h-14.849zm14.171-29.697 1.327-9.604h1.074c0.252 0.379 0.695 0.695 1.264 0.695 0.884 0 5.307-1.707 8.782-1.707 7.393 0 12.891 4.614 12.891 10.806 0 11.626-20.284 14.027-20.284 22.999 0 3.539 2.907 5.94 7.077 5.94 4.36 0 8.404-2.907 10.174-7.456h1.073l-1.073 8.024h-1.012c-0.379-0.505-0.631-0.631-1.137-0.631-2.211 0-3.285 1.579-8.593 1.579-6.445 0-11.248-3.917-11.248-9.161 0-11.058 20.283-13.839 20.283-22.937 0-4.992-4.486-7.456-8.72-7.456-4.927 0-9.351 3.286-10.677 8.909h-1.201zm-116.42 11.121c0 11.373-10.237 19.524-22.179 19.524-13.459 0-23.126-8.908-23.126-21.483 0-11.816 10.426-19.778 22.81-19.778 12.258 0 22.495 8.974 22.495 21.737zm-5.94-2.085c0-8.973-4.928-18.071-15.228-18.071-10.173 0-18.197 8.34-18.197 20.156 0 7.582 4.422 17.945 15.544 17.945 10.425 0 17.881-8.277 17.881-20.03zm53.191-1.517c1.896-0.379 3.476-0.505 5.371-0.505 9.351 0 15.29 4.676 15.29 12.068 0 4.866-3.032 11.184-16.238 11.184-1.706 0-4.738-0.063-7.835-0.189-3.096-0.126-5.457-0.316-7.227-0.38v-1.2h2.425c2.211 0 2.97-1.01 2.97-3.349v-29.887c0-2.969-0.393-3.656-3.679-3.656v-1.209h15.661v1.2h-1.683c-3.981 0-5.055 1.327-5.055 4.866v11.057zm0 21.294c1.517 0.253 2.907 0.253 4.36 0.253 8.403 0 10.362-4.865 10.362-9.794 0-6.382-4.422-11.057-11.31-11.057-1.201 0-2.591 0.315-3.412 0.504v20.094zm322.93 24.899-6.51 10.047c-1.22 1.872-1.016 2.644 2.157 2.644v0.773h-10.821v-0.773c2.644-0.081 3.579-0.65 5.573-3.783l7.241-11.309v-5.736c0-1.993-0.733-2.929-3.255-2.929h-0.772v-0.773h11.187v0.773h-0.529c-2.482 0-3.255 0.854-3.255 3.011v6.101l6.753 11.432c1.139 1.912 2.32 3.01 5.085 3.213v0.773h-9.193v-0.773c2.603 0 3.376-0.691 2.074-2.928l-5.735-9.763zm-164.13-12.123v22.699c0 1.587 0.651 2.115 3.703 2.115v0.773h-9.52v-0.773c3.254-0.081 3.987-0.528 3.987-3.009v-16.192l-19.161 19.974h-6.387v-0.773c1.424-0.04 2.482-0.366 3.417-1.016v-20.015c0-1.872-0.814-2.726-3.336-2.726l-0.162-0.773h9.437v0.773c-3.457 0-4.108 0.611-4.108 3.54v17.451l21.073-22.048h1.057zm-38.089 25.587v-0.773c3.377-0.162 3.987-0.854 3.987-4.759v-9.478c0-6.916-4.678-8.828-9.276-8.828-6.061 0-9.274 3.295-9.274 8.787v11.309c0 2.36 0.976 2.969 3.213 2.969h0.366v0.773h-10.454v-0.773c2.766-0.04 3.499-0.447 3.499-3.05v-11.879c0-5.817 3.986-10.252 11.756-10.252 8.828 0 12.041 5.411 12.041 10.455v10.984c0 2.603 0.976 3.702 3.702 3.742v0.773h-9.56zm52.917-24.53c-2.807 0-3.457 0.814-3.457 3.214v17.249c0 2.726 0.895 3.294 3.457 3.294v0.773h-9.885v-0.773c2.279-0.121 3.051-0.731 3.051-2.928v-17.33c0-2.726-0.529-3.377-3.051-3.499v-0.773h9.885v0.773zm-217.48 12.245-3.581 9.478-3.457-9.478h7.038zm-26.947-1.505-6.468-7.77c-1.586-1.912-1.465-2.97 1.22-2.97h0.814v-0.773h-9.682v0.773c2.847 0.244 3.946 0.936 6.794 4.353l6.305 7.608-6.305 7.932c-2.522 3.173-3.58 3.783-6.794 3.864v0.773h12.123v-0.773c-3.58 0.041-3.743-0.854-2.482-2.44l5.533-6.834 4.394 5.247c2.44 2.888 2.359 4.027 0.162 4.027h-1.18v0.773h9.764v-0.773c-2.685 0-4.557-1.26-6.916-4.148l-5.207-6.388s6.363-9.18 9.613-11.889c0.069-0.036 0.658-0.712 1.341-0.744 0.938-0.047 1.244 1.501 1.957 3.439l7.404 20.219-0.366 0.895h3.539l8.502-22.578c0.814-2.156 1.668-2.563 3.702-2.563v-0.773h-11.187v0.773h1.058c2.318 0 3.173 0.244 3.173 1.383 0 0.651-0.285 1.262-0.447 1.668l-2.726 7.404h-8.421l-2.359-6.387c-0.285-0.772-0.814-1.993-0.814-2.562 0-1.099 1.058-1.506 3.295-1.506h0.651v-0.773h-15.312v0.773c2.848 0 3.499 0.692 1.424 3.214l-6.102 7.526zm-18.741 5.37h-0.773c-0.203-2.36-0.895-3.051-2.36-3.051h-7.281v10.007h8.584c1.464 0 2.481-0.732 3.009-4.19h0.733l-0.325 5.654h-19.527v-0.773h0.895c2.725 0 3.254-0.976 3.254-3.254v-17.167c0-2.441-0.57-3.336-3.824-3.336h-1.138v-0.773h21.6l0.652 6.062h-0.733c-1.017-3.499-1.871-4.597-4.719-4.597h-6.265c-1.505 0-2.196 0.366-2.196 2.237v8.665h6.875c1.668 0 2.441-0.325 2.766-3.213h0.773v7.729zm57.218-10.7 0.854-6.183h0.692c0.163 0.244 0.448 0.448 0.814 0.448 0.569 0 3.417-1.099 5.654-1.099 4.76 0 8.299 2.971 8.299 6.957 0 7.485-13.059 9.031-13.059 14.807 0 2.278 1.872 3.825 4.556 3.825 2.808 0 5.412-1.872 6.55-4.801h0.692l-0.692 5.166h-0.651c-0.244-0.325-0.406-0.406-0.732-0.406-1.423 0-2.115 1.017-5.532 1.017-4.15 0-7.241-2.523-7.241-5.899 0-7.119 13.058-8.909 13.058-14.767 0-3.214-2.889-4.8-5.614-4.8-3.173 0-6.021 2.115-6.875 5.735h-0.773zm98.672-6.183 10.13 21.718 1.261-18.255c0.162-2.16-1.709-2.69-3.62-2.69v-0.773h10.454v0.773c-2.969 0-3.295 0-3.539 3.749l-1.302 18.46c-0.081 1.385 0.692 1.426 2.685 1.589v0.732h-5.98l-9.764-20.536-9.803 20.536h-6.143v-0.732c2.523-0.163 2.604-0.896 2.441-3.585l-0.976-15.852c-0.204-3.708-0.57-4.361-3.54-4.361v-0.773h8.461v0.773c-1.83 0.082-3.376 0.53-3.253 2.609l1.098 18.336 10.455-21.718h0.935zm-51.723 11.228 2.725-7.404c0.163-0.406 0.448-1.017 0.448-1.668 0-1.139-0.855-1.383-3.173-1.383h-1.058v-0.773h11.187v0.773c-2.035 0-2.889 0.407-3.703 2.563l-8.502 22.578h-3.539l0.367-0.895-7.404-20.219c-1.302-3.539-1.75-3.986-4.394-4.027v-0.773h9.398v0.773h-0.652c-2.237 0-3.295 0.407-3.295 1.506 0 0.569 0.529 1.79 0.814 2.562l2.36 6.387h8.421zm-0.692 1.79h-7.038l3.458 9.478 3.58-9.478zm-133.4 10.821h7.079c1.627 0 2.359-0.935 2.969-4.515h0.733l-0.651 6.59h-0.773c-0.082-0.489-0.692-0.611-1.261-0.611h-19.567c-0.285 0-0.57 0.041-0.814 0.122-0.244 0.082-0.407 0.245-0.447 0.489h-0.773l-0.652-6.59h0.733c0.61 3.58 1.342 4.515 2.969 4.515h7.079v-20.096c0-2.197-0.732-2.97-3.214-2.97h-1.505v-0.773h12.814v0.773h-1.505c-2.482 0-3.214 0.773-3.214 2.97v20.096zm161.94-8.332v-0.948h0.79c0.79 0 1.212-0.106 1.212-0.632s-1.58-3.318-4.319-6.847c-1.949 2.897-3.318 4.372-5.373 6.267 1.58 0.896 3.688 2.107 3.688 4.583 0 2.317-2.371 3.74-5.057 3.74-2.897 0-5.266-1.528-5.266-4.583 0-2.001 1.157-3.371 2.527-4.845-2.475-0.896-6.109-2.213-6.109-6.953s3.897-5.899 5.898-5.899c2.897 0 5.953 2.581 7.638 4.003 0.842-1.422 2.37-4.003 5.004-4.003 1.895 0 3.897 1.317 4.845 1.949l-0.527 0.842c-0.79-0.473-1.475-0.895-2.317-0.895-1.422 0-3.055 2.634-4.425 4.898 0.896 1.159 3.055 3.898 4.688 7.058 0.579 1.106 1.001 1.37 3.476 1.317v0.948h-6.373zm-8.585-1.37c-1.896 1.634-2.686 2.424-2.686 4.214 0 1.37 0.79 2.581 2.001 2.581 0.844 0 2.213-0.685 2.213-3.213 0-1.948-0.791-2.792-1.528-3.582zm-2.475-2.685c4.424-4.53 4.898-5.004 6.11-7.216-1.16-1.053-2.898-2.634-5.058-2.634-2.475 0-4.265 1.844-4.265 4.477 0 3.003 2.212 4.635 3.213 5.373zm158.35-12.103 8.38 21.683c0.976 2.522 2.075 3.498 4.19 3.498v0.773h-9.438v-0.773c2.767 0 3.783-0.487 3.783-1.708 0-0.569-0.243-1.383-0.691-2.522l-6.428-16.801-7.321 18.224c-0.774 1.872 0.121 2.726 3.864 2.807v0.773h-11.188v-0.773c2.482 0 2.97-0.609 3.988-3.173l8.827-22.008h2.034zm31.844 17.534h-0.773c-0.204-2.36-0.895-3.051-2.36-3.051h-7.282v10.007h8.584c1.464 0 2.481-0.732 3.01-4.19h0.733l-0.325 5.654h-19.528v-0.773h0.895c2.726 0 3.255-0.976 3.255-3.254v-17.167c0-2.441-0.57-3.336-3.824-3.336h-1.139v-0.773h21.601l0.651 6.062h-0.732c-1.017-3.499-1.872-4.597-4.719-4.597h-6.265c-1.505 0-2.197 0.366-2.197 2.237v8.665h6.876c1.667 0 2.44-0.325 2.766-3.213h0.773v7.729zm58.927-16.11c-2.807 0-3.458 0.814-3.458 3.214v17.249c0 2.726 0.896 3.294 3.458 3.294v0.773h-9.885v-0.773c2.278-0.121 3.051-0.731 3.051-2.928v-17.33c0-2.726-0.529-3.377-3.051-3.499v-0.773h9.885v0.773zm15.241 23.066h7.078c1.627 0 2.36-0.935 2.969-4.515h0.733l-0.651 6.59h-0.773c-0.081-0.489-0.691-0.611-1.261-0.611h-19.567c-0.285 0-0.57 0.041-0.814 0.122-0.244 0.082-0.407 0.245-0.447 0.489h-0.773l-0.651-6.59h0.732c0.61 3.58 1.342 4.515 2.97 4.515h7.078v-20.096c0-2.197-0.732-2.97-3.214-2.97h-1.505v-0.773h12.814v0.773h-1.504c-2.482 0-3.214 0.773-3.214 2.97v20.096zm-320.34-56.875c5.064 1.558 8.204 5.488 8.204 10.156 0 6.432-5.247 11.225-16.941 11.225-4.109 0-5.372-0.062-7.964-0.189-2.591-0.126-6.448-0.379-7.965-0.379v-1.198h1.391c3.666 0 4.74-1.134 4.74-5.045v-26.55c0-4.225-1.327-5.234-5.057-5.234h-1.074v-1.199h17.889v1.199h-1.454c-3.539 0-5.057 0.945-5.057 4.729v10.658c1.011-0.063 1.833-0.126 3.224-0.126 1.695 0 3.727 0.06 5.381 0.276 0.552-0.824 1.192-1.737 1.801-2.747l3.041-5.048c1.084-1.799 2.033-3.333 3.045-4.657 0 0 3.248-4.32 12.598-4.32l-0.008 1.213c-5.007-0.154-8.16 4.803-8.16 4.803s-4.668 7.809-7.634 12.433zm-13.288 20.057c1.138 0.126 1.959 0.126 3.16 0.126 9.735 0 12.39-4.541 12.39-10.405 0-7.569-4.615-10.532-11.631-10.532-1.453 0-2.401-0.063-3.919 0.125v20.686zm257.59-20.057c5.065 1.558 8.204 5.488 8.204 10.156 0 6.432-5.247 11.225-16.941 11.225-4.108 0-5.372-0.062-7.963-0.189-2.592-0.126-6.448-0.379-7.965-0.379v-1.198h1.391c3.666 0 4.74-1.134 4.74-5.045v-26.55c0-4.225-1.327-5.234-5.057-5.234h-1.074v-1.199h17.888v1.199h-1.453c-3.54 0-5.057 0.945-5.057 4.729v10.658c1.011-0.063 1.833-0.126 3.224-0.126 1.695 0 3.727 0.06 5.381 0.276 0.551-0.824 1.192-1.737 1.801-2.747l3.04-5.048c1.084-1.799 2.035-3.333 3.046-4.657 0 0 3.247-4.32 12.597-4.32l-0.007 1.213c-5.008-0.154-8.16 4.803-8.16 4.803s-4.668 7.809-7.635 12.433zm-13.287 20.057c1.137 0.126 1.959 0.126 3.16 0.126 9.735 0 12.39-4.541 12.39-10.405 0-7.569-4.615-10.532-11.631-10.532-1.454 0-2.402-0.063-3.919 0.125v20.686zm47.02 19.525 0.854-6.183h0.692c0.163 0.244 0.447 0.448 0.814 0.448 0.569 0 3.417-1.099 5.654-1.099 4.76 0 8.299 2.97 8.299 6.956 0 7.486-13.059 9.032-13.059 14.808 0 2.278 1.872 3.825 4.556 3.825 2.807 0 5.411-1.872 6.55-4.801h0.692l-0.692 5.167h-0.651c-0.244-0.326-0.407-0.407-0.732-0.407-1.424 0-2.115 1.016-5.533 1.016-4.149 0-7.241-2.522-7.241-5.898 0-7.119 13.058-8.909 13.058-14.767 0-3.213-2.888-4.8-5.613-4.8-3.173 0-6.021 2.115-6.875 5.735h-0.773zm-11.077 5.336c3.27 1.006 5.296 3.544 5.296 6.557 0 4.153-3.387 7.248-10.937 7.248-2.653 0-3.469-0.041-5.142-0.122s-4.163-0.245-5.142-0.245v-0.773h0.898c2.366 0 3.06-0.733 3.06-3.257v-17.142c0-2.729-0.857-3.38-3.265-3.38h-0.693v-0.774h11.55v0.774h-0.939c-2.286 0-3.265 0.61-3.265 3.054v6.881c0.653-0.041 1.183-0.081 2.081-0.081 1.095 0 2.407 0.038 3.474 0.177 0.357-0.531 0.771-1.121 1.163-1.773l1.964-3.259c0.699-1.162 1.313-2.152 1.966-3.007 0 0 2.097-2.789 8.133-2.789l-0.005 0.783c-3.233-0.1-5.268 3.101-5.268 3.101s-3.014 5.042-4.929 8.027zm-8.579 12.95c0.734 0.082 1.265 0.082 2.04 0.082 6.285 0 7.999-2.932 7.999-6.719 0-4.886-2.979-6.8-7.509-6.8-0.938 0-1.551-0.04-2.53 0.082v13.355z" stroke="#007f3e" stroke-miterlimit="3.864" stroke-width=".5" fill="#007f3e"/></g></g></g></g></svg>
